# xmcd CD database file
#
# Track frame offsets:
#	150
#	18406
#	33054
#	58576
#	91749
#	111380
#	129203
#	159551
#	182926
#
# Disc length: 2601 seconds
#
# Revision: 0
# Processed by: cddbd v1.5.1PL0 Copyright (c) Steve Scherf et al.
# Submitted via: CDex 1.51
#
DISCID=690a2709
DTITLE=Alyss Quartet - Ma Poussin
DYEAR=1900
DGENRE=Jazz
TTITLE0=Silly Boy
TTITLE1=Altheka
TTITLE2=Ma poussin
TTITLE3=dream of 'trane
TTITLE4=V.O
TTITLE5=mi
TTITLE6=jacketter d'audace
TTITLE7=troub's
TTITLE8=rugby song's
EXTD=
EXTT0=
EXTT1=
EXTT2=
EXTT3=
EXTT4=
EXTT5=
EXTT6=
EXTT7=
EXTT8=
PLAYORDER=
